<?xml version="1.0" encoding="us-ascii" standalone="no"?><svg xmlns="http://www.w3.org/2000/svg" xmlns:xlink="http://www.w3.org/1999/xlink" contentStyleType="text/css" height="900px" preserveAspectRatio="none" style="width:657px;height:900px;background:#FFFFFF;" version="1.1" viewBox="0 0 657 900" width="657px" zoomAndPan="magnify"><defs/><g><!--class Department--><g id="elem_Department"><rect codeLine="7" fill="#F1F1F1" height="129.4844" id="Department" rx="2.5" ry="2.5" style="stroke:#181818;stroke-width:0.5;" width="291" x="180" y="7"/><ellipse cx="277.25" cy="23" fill="#ADD1B2" rx="11" ry="11" style="stroke:#181818;stroke-width:1.0;"/><path d="M276.0469,23.875 L277.5,23.875 L277.5,23.9844 C277.5,24.3906 277.5313,24.5469 277.6094,24.7031 C277.7656,24.9531 278.0469,25.1094 278.3438,25.1094 C278.5938,25.1094 278.8594,24.9688 279.0156,24.75 C279.1406,24.5938 279.1719,24.4375 279.1719,23.9844 L279.1719,22.0625 C279.1719,21.9063 279.1719,21.8594 279.1563,21.7031 C279.0938,21.2344 278.7813,20.9219 278.3281,20.9219 C278.0781,20.9219 277.8125,21.0625 277.6406,21.2813 C277.5313,21.4531 277.5,21.6094 277.5,22.0625 L277.5,22.1875 L276.0469,22.1875 L276.0469,19.7813 L280.0313,19.7813 L280.0313,20.6406 C280.0313,21.0469 280.0625,21.2188 280.1406,21.375 C280.3125,21.625 280.5938,21.7813 280.875,21.7813 C281.1406,21.7813 281.4063,21.6406 281.5781,21.4219 C281.6875,21.25 281.7188,21.1094 281.7188,20.6406 L281.7188,18.0938 L274.0938,18.0938 C273.6563,18.0938 273.5313,18.1094 273.375,18.2031 C273.125,18.3594 272.9688,18.6563 272.9688,18.9375 C272.9688,19.2188 273.1094,19.4688 273.3281,19.6406 C273.4844,19.75 273.6719,19.7813 274.0938,19.7813 L274.3438,19.7813 L274.3438,26.2969 L274.0938,26.2969 C273.6875,26.2969 273.5313,26.3125 273.375,26.4219 C273.125,26.5938 272.9688,26.8594 272.9688,27.1563 C272.9688,27.4219 273.1094,27.6719 273.3281,27.8281 C273.4688,27.9531 273.7031,28 274.0938,28 L282.0938,28 L282.0938,25.4219 C282.0938,24.9844 282.0625,24.8438 281.9844,24.6875 C281.8125,24.4375 281.5313,24.2813 281.25,24.2813 C280.9844,24.2813 280.7188,24.3906 280.5469,24.6406 C280.4375,24.7969 280.4063,24.9375 280.4063,25.4219 L280.4063,26.2969 L276.0469,26.2969 L276.0469,23.875 Z " fill="#000000"/><text fill="#000000" font-family="sans-serif" font-size="14" lengthAdjust="spacing" textLength="88" x="297.75" y="27.8467">department</text><line style="stroke:#181818;stroke-width:0.5;" x1="181" x2="470" y1="39" y2="39"/><ellipse cx="191" cy="52.6484" fill="#000000" rx="3" ry="3" style="stroke:#000000;stroke-width:1.0;"/><text fill="#000000" font-family="sans-serif" font-size="14" lengthAdjust="spacing" textLength="265" x="200" y="55.9951">deparment_id : number &#171;generated&#187;</text><line style="stroke:#181818;stroke-width:1.0;" x1="181" x2="470" y1="63.2969" y2="63.2969"/><ellipse cx="191" cy="76.9453" fill="#000000" rx="3" ry="3" style="stroke:#000000;stroke-width:1.0;"/><text fill="#000000" font-family="sans-serif" font-size="14" lengthAdjust="spacing" textLength="228" x="200" y="80.292">department_name : varchar(45)</text><text fill="#000000" font-family="sans-serif" font-size="14" lengthAdjust="spacing" textLength="99" x="200" y="96.5889">address : text</text><ellipse cx="191" cy="109.5391" fill="#000000" rx="3" ry="3" style="stroke:#000000;stroke-width:1.0;"/><text fill="#000000" font-family="sans-serif" font-size="14" lengthAdjust="spacing" textLength="118" x="200" y="112.8857">phone : char(10)</text><ellipse cx="191" cy="125.8359" fill="#000000" rx="3" ry="3" style="stroke:#000000;stroke-width:1.0;"/><text fill="#000000" font-family="sans-serif" font-size="14" lengthAdjust="spacing" textLength="146" x="200" y="129.1826">is_delivery : boolean</text></g><!--class Employee--><g id="elem_Employee"><rect codeLine="16" fill="#F1F1F1" height="113.1875" id="Employee" rx="2.5" ry="2.5" style="stroke:#181818;stroke-width:0.5;" width="282" x="184.5" y="196"/><ellipse cx="285.25" cy="212" fill="#ADD1B2" rx="11" ry="11" style="stroke:#181818;stroke-width:1.0;"/><path d="M284.0469,212.875 L285.5,212.875 L285.5,212.9844 C285.5,213.3906 285.5313,213.5469 285.6094,213.7031 C285.7656,213.9531 286.0469,214.1094 286.3438,214.1094 C286.5938,214.1094 286.8594,213.9688 287.0156,213.75 C287.1406,213.5938 287.1719,213.4375 287.1719,212.9844 L287.1719,211.0625 C287.1719,210.9063 287.1719,210.8594 287.1563,210.7031 C287.0938,210.2344 286.7813,209.9219 286.3281,209.9219 C286.0781,209.9219 285.8125,210.0625 285.6406,210.2813 C285.5313,210.4531 285.5,210.6094 285.5,211.0625 L285.5,211.1875 L284.0469,211.1875 L284.0469,208.7813 L288.0313,208.7813 L288.0313,209.6406 C288.0313,210.0469 288.0625,210.2188 288.1406,210.375 C288.3125,210.625 288.5938,210.7813 288.875,210.7813 C289.1406,210.7813 289.4063,210.6406 289.5781,210.4219 C289.6875,210.25 289.7188,210.1094 289.7188,209.6406 L289.7188,207.0938 L282.0938,207.0938 C281.6563,207.0938 281.5313,207.1094 281.375,207.2031 C281.125,207.3594 280.9688,207.6563 280.9688,207.9375 C280.9688,208.2188 281.1094,208.4688 281.3281,208.6406 C281.4844,208.75 281.6719,208.7813 282.0938,208.7813 L282.3438,208.7813 L282.3438,215.2969 L282.0938,215.2969 C281.6875,215.2969 281.5313,215.3125 281.375,215.4219 C281.125,215.5938 280.9688,215.8594 280.9688,216.1563 C280.9688,216.4219 281.1094,216.6719 281.3281,216.8281 C281.4688,216.9531 281.7031,217 282.0938,217 L290.0938,217 L290.0938,214.4219 C290.0938,213.9844 290.0625,213.8438 289.9844,213.6875 C289.8125,213.4375 289.5313,213.2813 289.25,213.2813 C288.9844,213.2813 288.7188,213.3906 288.5469,213.6406 C288.4375,213.7969 288.4063,213.9375 288.4063,214.4219 L288.4063,215.2969 L284.0469,215.2969 L284.0469,212.875 Z " fill="#000000"/><text fill="#000000" font-family="sans-serif" font-size="14" lengthAdjust="spacing" textLength="72" x="305.75" y="216.8467">employee</text><line style="stroke:#181818;stroke-width:0.5;" x1="185.5" x2="465.5" y1="228" y2="228"/><ellipse cx="195.5" cy="241.6484" fill="#000000" rx="3" ry="3" style="stroke:#000000;stroke-width:1.0;"/><text fill="#000000" font-family="sans-serif" font-size="14" lengthAdjust="spacing" textLength="256" x="204.5" y="244.9951">employee_id : number &#171;generated&#187;</text><line style="stroke:#181818;stroke-width:1.0;" x1="185.5" x2="465.5" y1="252.2969" y2="252.2969"/><ellipse cx="195.5" cy="265.9453" fill="#000000" rx="3" ry="3" style="stroke:#000000;stroke-width:1.0;"/><text fill="#000000" font-family="sans-serif" font-size="14" lengthAdjust="spacing" textLength="119" x="204.5" y="269.292">employee_name</text><ellipse cx="195.5" cy="282.2422" fill="#000000" rx="3" ry="3" style="stroke:#000000;stroke-width:1.0;"/><text fill="#000000" font-family="sans-serif" font-size="14" lengthAdjust="spacing" textLength="215" x="204.5" y="285.5889">department_id : number &#171;FK&#187;</text><text fill="#000000" font-family="sans-serif" font-size="14" lengthAdjust="spacing" textLength="118" x="204.5" y="301.8857">phone : char(10)</text></g><!--class Product--><g id="elem_Product"><rect codeLine="24" fill="#F1F1F1" height="129.4844" id="Product" rx="2.5" ry="2.5" style="stroke:#181818;stroke-width:0.5;" width="267" x="191" y="764"/><ellipse cx="291.75" cy="780" fill="#ADD1B2" rx="11" ry="11" style="stroke:#181818;stroke-width:1.0;"/><path d="M290.5469,780.875 L292,780.875 L292,780.9844 C292,781.3906 292.0313,781.5469 292.1094,781.7031 C292.2656,781.9531 292.5469,782.1094 292.8438,782.1094 C293.0938,782.1094 293.3594,781.9688 293.5156,781.75 C293.6406,781.5938 293.6719,781.4375 293.6719,780.9844 L293.6719,779.0625 C293.6719,778.9063 293.6719,778.8594 293.6563,778.7031 C293.5938,778.2344 293.2813,777.9219 292.8281,777.9219 C292.5781,777.9219 292.3125,778.0625 292.1406,778.2813 C292.0313,778.4531 292,778.6094 292,779.0625 L292,779.1875 L290.5469,779.1875 L290.5469,776.7813 L294.5313,776.7813 L294.5313,777.6406 C294.5313,778.0469 294.5625,778.2188 294.6406,778.375 C294.8125,778.625 295.0938,778.7813 295.375,778.7813 C295.6406,778.7813 295.9063,778.6406 296.0781,778.4219 C296.1875,778.25 296.2188,778.1094 296.2188,777.6406 L296.2188,775.0938 L288.5938,775.0938 C288.1563,775.0938 288.0313,775.1094 287.875,775.2031 C287.625,775.3594 287.4688,775.6563 287.4688,775.9375 C287.4688,776.2188 287.6094,776.4688 287.8281,776.6406 C287.9844,776.75 288.1719,776.7813 288.5938,776.7813 L288.8438,776.7813 L288.8438,783.2969 L288.5938,783.2969 C288.1875,783.2969 288.0313,783.3125 287.875,783.4219 C287.625,783.5938 287.4688,783.8594 287.4688,784.1563 C287.4688,784.4219 287.6094,784.6719 287.8281,784.8281 C287.9688,784.9531 288.2031,785 288.5938,785 L296.5938,785 L296.5938,782.4219 C296.5938,781.9844 296.5625,781.8438 296.4844,781.6875 C296.3125,781.4375 296.0313,781.2813 295.75,781.2813 C295.4844,781.2813 295.2188,781.3906 295.0469,781.6406 C294.9375,781.7969 294.9063,781.9375 294.9063,782.4219 L294.9063,783.2969 L290.5469,783.2969 L290.5469,780.875 Z " fill="#000000"/><text fill="#000000" font-family="sans-serif" font-size="14" lengthAdjust="spacing" textLength="57" x="312.25" y="784.8467">product</text><line style="stroke:#181818;stroke-width:0.5;" x1="192" x2="457" y1="796" y2="796"/><ellipse cx="202" cy="809.6484" fill="#000000" rx="3" ry="3" style="stroke:#000000;stroke-width:1.0;"/><text fill="#000000" font-family="sans-serif" font-size="14" lengthAdjust="spacing" textLength="241" x="211" y="812.9951">product_id : number &#171;generated&#187;</text><line style="stroke:#181818;stroke-width:1.0;" x1="192" x2="457" y1="820.2969" y2="820.2969"/><ellipse cx="202" cy="833.9453" fill="#000000" rx="3" ry="3" style="stroke:#000000;stroke-width:1.0;"/><text fill="#000000" font-family="sans-serif" font-size="14" lengthAdjust="spacing" textLength="198" x="211" y="837.292">product_name : varchar(50)</text><text fill="#000000" font-family="sans-serif" font-size="14" lengthAdjust="spacing" textLength="126" x="211" y="853.5889">description : text</text><ellipse cx="202" cy="866.5391" fill="#000000" rx="3" ry="3" style="stroke:#000000;stroke-width:1.0;"/><text fill="#000000" font-family="sans-serif" font-size="14" lengthAdjust="spacing" textLength="158" x="211" y="869.8857">unit_type: varchar(20)</text><ellipse cx="202" cy="882.8359" fill="#000000" rx="3" ry="3" style="stroke:#000000;stroke-width:1.0;"/><text fill="#000000" font-family="sans-serif" font-size="14" lengthAdjust="spacing" textLength="106" x="211" y="886.1826">price : number</text></g><!--class Order--><g id="elem_Order"><rect codeLine="33" fill="#F1F1F1" height="113.1875" id="Order" rx="2.5" ry="2.5" style="stroke:#181818;stroke-width:0.5;" width="287" x="12" y="393.5"/><ellipse cx="131.75" cy="409.5" fill="#ADD1B2" rx="11" ry="11" style="stroke:#181818;stroke-width:1.0;"/><path d="M130.5469,410.375 L132,410.375 L132,410.4844 C132,410.8906 132.0313,411.0469 132.1094,411.2031 C132.2656,411.4531 132.5469,411.6094 132.8438,411.6094 C133.0938,411.6094 133.3594,411.4688 133.5156,411.25 C133.6406,411.0938 133.6719,410.9375 133.6719,410.4844 L133.6719,408.5625 C133.6719,408.4063 133.6719,408.3594 133.6563,408.2031 C133.5938,407.7344 133.2813,407.4219 132.8281,407.4219 C132.5781,407.4219 132.3125,407.5625 132.1406,407.7813 C132.0313,407.9531 132,408.1094 132,408.5625 L132,408.6875 L130.5469,408.6875 L130.5469,406.2813 L134.5313,406.2813 L134.5313,407.1406 C134.5313,407.5469 134.5625,407.7188 134.6406,407.875 C134.8125,408.125 135.0938,408.2813 135.375,408.2813 C135.6406,408.2813 135.9063,408.1406 136.0781,407.9219 C136.1875,407.75 136.2188,407.6094 136.2188,407.1406 L136.2188,404.5938 L128.5938,404.5938 C128.1563,404.5938 128.0313,404.6094 127.875,404.7031 C127.625,404.8594 127.4688,405.1563 127.4688,405.4375 C127.4688,405.7188 127.6094,405.9688 127.8281,406.1406 C127.9844,406.25 128.1719,406.2813 128.5938,406.2813 L128.8438,406.2813 L128.8438,412.7969 L128.5938,412.7969 C128.1875,412.7969 128.0313,412.8125 127.875,412.9219 C127.625,413.0938 127.4688,413.3594 127.4688,413.6563 C127.4688,413.9219 127.6094,414.1719 127.8281,414.3281 C127.9688,414.4531 128.2031,414.5 128.5938,414.5 L136.5938,414.5 L136.5938,411.9219 C136.5938,411.4844 136.5625,411.3438 136.4844,411.1875 C136.3125,410.9375 136.0313,410.7813 135.75,410.7813 C135.4844,410.7813 135.2188,410.8906 135.0469,411.1406 C134.9375,411.2969 134.9063,411.4375 134.9063,411.9219 L134.9063,412.7969 L130.5469,412.7969 L130.5469,410.375 Z " fill="#000000"/><text fill="#000000" font-family="sans-serif" font-size="14" lengthAdjust="spacing" textLength="39" x="152.25" y="414.3467">order</text><line style="stroke:#181818;stroke-width:0.5;" x1="13" x2="298" y1="425.5" y2="425.5"/><ellipse cx="23" cy="439.1484" fill="#000000" rx="3" ry="3" style="stroke:#000000;stroke-width:1.0;"/><text fill="#000000" font-family="sans-serif" font-size="14" lengthAdjust="spacing" textLength="223" x="32" y="442.4951">order_id : number &#171;generated&#187;</text><line style="stroke:#181818;stroke-width:1.0;" x1="13" x2="298" y1="449.7969" y2="449.7969"/><ellipse cx="23" cy="463.4453" fill="#000000" rx="3" ry="3" style="stroke:#000000;stroke-width:1.0;"/><text fill="#000000" font-family="sans-serif" font-size="14" lengthAdjust="spacing" textLength="261" x="32" y="466.792">order_department_id : number &#171;FK&#187;</text><ellipse cx="23" cy="479.7422" fill="#000000" rx="3" ry="3" style="stroke:#000000;stroke-width:1.0;"/><text fill="#000000" font-family="sans-serif" font-size="14" lengthAdjust="spacing" textLength="245" x="32" y="483.0889">order_employee_id : number &#171;FK&#187;</text><ellipse cx="23" cy="496.0391" fill="#000000" rx="3" ry="3" style="stroke:#000000;stroke-width:1.0;"/><text fill="#000000" font-family="sans-serif" font-size="14" lengthAdjust="spacing" textLength="159" x="32" y="499.3857">order_date : datetime</text></g><!--class OrderDetail--><g id="elem_OrderDetail"><rect codeLine="41" fill="#F1F1F1" height="113.1875" id="OrderDetail" rx="2.5" ry="2.5" style="stroke:#181818;stroke-width:0.5;" width="297" x="7" y="591"/><ellipse cx="107.75" cy="607" fill="#ADD1B2" rx="11" ry="11" style="stroke:#181818;stroke-width:1.0;"/><path d="M106.5469,607.875 L108,607.875 L108,607.9844 C108,608.3906 108.0313,608.5469 108.1094,608.7031 C108.2656,608.9531 108.5469,609.1094 108.8438,609.1094 C109.0938,609.1094 109.3594,608.9688 109.5156,608.75 C109.6406,608.5938 109.6719,608.4375 109.6719,607.9844 L109.6719,606.0625 C109.6719,605.9063 109.6719,605.8594 109.6563,605.7031 C109.5938,605.2344 109.2813,604.9219 108.8281,604.9219 C108.5781,604.9219 108.3125,605.0625 108.1406,605.2813 C108.0313,605.4531 108,605.6094 108,606.0625 L108,606.1875 L106.5469,606.1875 L106.5469,603.7813 L110.5313,603.7813 L110.5313,604.6406 C110.5313,605.0469 110.5625,605.2188 110.6406,605.375 C110.8125,605.625 111.0938,605.7813 111.375,605.7813 C111.6406,605.7813 111.9063,605.6406 112.0781,605.4219 C112.1875,605.25 112.2188,605.1094 112.2188,604.6406 L112.2188,602.0938 L104.5938,602.0938 C104.1563,602.0938 104.0313,602.1094 103.875,602.2031 C103.625,602.3594 103.4688,602.6563 103.4688,602.9375 C103.4688,603.2188 103.6094,603.4688 103.8281,603.6406 C103.9844,603.75 104.1719,603.7813 104.5938,603.7813 L104.8438,603.7813 L104.8438,610.2969 L104.5938,610.2969 C104.1875,610.2969 104.0313,610.3125 103.875,610.4219 C103.625,610.5938 103.4688,610.8594 103.4688,611.1563 C103.4688,611.4219 103.6094,611.6719 103.8281,611.8281 C103.9688,611.9531 104.2031,612 104.5938,612 L112.5938,612 L112.5938,609.4219 C112.5938,608.9844 112.5625,608.8438 112.4844,608.6875 C112.3125,608.4375 112.0313,608.2813 111.75,608.2813 C111.4844,608.2813 111.2188,608.3906 111.0469,608.6406 C110.9375,608.7969 110.9063,608.9375 110.9063,609.4219 L110.9063,610.2969 L106.5469,610.2969 L106.5469,607.875 Z " fill="#000000"/><text fill="#000000" font-family="sans-serif" font-size="14" lengthAdjust="spacing" textLength="87" x="128.25" y="611.8467">order_detail</text><line style="stroke:#181818;stroke-width:0.5;" x1="8" x2="303" y1="623" y2="623"/><ellipse cx="18" cy="636.6484" fill="#000000" rx="3" ry="3" style="stroke:#000000;stroke-width:1.0;"/><text fill="#000000" font-family="sans-serif" font-size="14" lengthAdjust="spacing" textLength="271" x="27" y="639.9951">order_detail_id : number &#171;generated&#187;</text><line style="stroke:#181818;stroke-width:1.0;" x1="8" x2="303" y1="647.2969" y2="647.2969"/><ellipse cx="18" cy="660.9453" fill="#000000" rx="3" ry="3" style="stroke:#000000;stroke-width:1.0;"/><text fill="#000000" font-family="sans-serif" font-size="14" lengthAdjust="spacing" textLength="166" x="27" y="664.292">order_id : number &#171;FK&#187;</text><ellipse cx="18" cy="677.2422" fill="#000000" rx="3" ry="3" style="stroke:#000000;stroke-width:1.0;"/><text fill="#000000" font-family="sans-serif" font-size="14" lengthAdjust="spacing" textLength="180" x="27" y="680.5889">product_id: number &#171;FK&#187;</text><ellipse cx="18" cy="693.5391" fill="#000000" rx="3" ry="3" style="stroke:#000000;stroke-width:1.0;"/><text fill="#000000" font-family="sans-serif" font-size="14" lengthAdjust="spacing" textLength="129" x="27" y="696.8857">quantity : number</text></g><!--class DeliveryReceipt--><g id="elem_DeliveryReceipt"><rect codeLine="49" fill="#F1F1F1" height="162.0781" id="DeliveryReceipt" rx="2.5" ry="2.5" style="stroke:#181818;stroke-width:0.5;" width="305" x="342" y="369"/><ellipse cx="431.75" cy="385" fill="#ADD1B2" rx="11" ry="11" style="stroke:#181818;stroke-width:1.0;"/><path d="M430.5469,385.875 L432,385.875 L432,385.9844 C432,386.3906 432.0313,386.5469 432.1094,386.7031 C432.2656,386.9531 432.5469,387.1094 432.8438,387.1094 C433.0938,387.1094 433.3594,386.9688 433.5156,386.75 C433.6406,386.5938 433.6719,386.4375 433.6719,385.9844 L433.6719,384.0625 C433.6719,383.9063 433.6719,383.8594 433.6563,383.7031 C433.5938,383.2344 433.2813,382.9219 432.8281,382.9219 C432.5781,382.9219 432.3125,383.0625 432.1406,383.2813 C432.0313,383.4531 432,383.6094 432,384.0625 L432,384.1875 L430.5469,384.1875 L430.5469,381.7813 L434.5313,381.7813 L434.5313,382.6406 C434.5313,383.0469 434.5625,383.2188 434.6406,383.375 C434.8125,383.625 435.0938,383.7813 435.375,383.7813 C435.6406,383.7813 435.9063,383.6406 436.0781,383.4219 C436.1875,383.25 436.2188,383.1094 436.2188,382.6406 L436.2188,380.0938 L428.5938,380.0938 C428.1563,380.0938 428.0313,380.1094 427.875,380.2031 C427.625,380.3594 427.4688,380.6563 427.4688,380.9375 C427.4688,381.2188 427.6094,381.4688 427.8281,381.6406 C427.9844,381.75 428.1719,381.7813 428.5938,381.7813 L428.8438,381.7813 L428.8438,388.2969 L428.5938,388.2969 C428.1875,388.2969 428.0313,388.3125 427.875,388.4219 C427.625,388.5938 427.4688,388.8594 427.4688,389.1563 C427.4688,389.4219 427.6094,389.6719 427.8281,389.8281 C427.9688,389.9531 428.2031,390 428.5938,390 L436.5938,390 L436.5938,387.4219 C436.5938,386.9844 436.5625,386.8438 436.4844,386.6875 C436.3125,386.4375 436.0313,386.2813 435.75,386.2813 C435.4844,386.2813 435.2188,386.3906 435.0469,386.6406 C434.9375,386.7969 434.9063,386.9375 434.9063,387.4219 L434.9063,388.2969 L430.5469,388.2969 L430.5469,385.875 Z " fill="#000000"/><text fill="#000000" font-family="sans-serif" font-size="14" lengthAdjust="spacing" textLength="117" x="452.25" y="389.8467">delivery_receipt</text><line style="stroke:#181818;stroke-width:0.5;" x1="343" x2="646" y1="401" y2="401"/><ellipse cx="353" cy="414.6484" fill="#000000" rx="3" ry="3" style="stroke:#000000;stroke-width:1.0;"/><text fill="#000000" font-family="sans-serif" font-size="14" lengthAdjust="spacing" textLength="237" x="362" y="417.9951">receipt_id : number &#171;generated&#187;</text><line style="stroke:#181818;stroke-width:1.0;" x1="343" x2="646" y1="425.2969" y2="425.2969"/><ellipse cx="353" cy="438.9453" fill="#000000" rx="3" ry="3" style="stroke:#000000;stroke-width:1.0;"/><text fill="#000000" font-family="sans-serif" font-size="14" lengthAdjust="spacing" textLength="275" x="362" y="442.292">receive_department_id : number &#171;FK&#187;</text><ellipse cx="353" cy="455.2422" fill="#000000" rx="3" ry="3" style="stroke:#000000;stroke-width:1.0;"/><text fill="#000000" font-family="sans-serif" font-size="14" lengthAdjust="spacing" textLength="259" x="362" y="458.5889">receive_employee_id : number &#171;FK&#187;</text><ellipse cx="353" cy="471.5391" fill="#000000" rx="3" ry="3" style="stroke:#000000;stroke-width:1.0;"/><text fill="#000000" font-family="sans-serif" font-size="14" lengthAdjust="spacing" textLength="279" x="362" y="474.8857">delivery_department_id : number &#171;FK&#187;</text><ellipse cx="353" cy="487.8359" fill="#000000" rx="3" ry="3" style="stroke:#000000;stroke-width:1.0;"/><text fill="#000000" font-family="sans-serif" font-size="14" lengthAdjust="spacing" textLength="263" x="362" y="491.1826">delivery_employee_id : number &#171;FK&#187;</text><ellipse cx="353" cy="504.1328" fill="#000000" rx="3" ry="3" style="stroke:#000000;stroke-width:1.0;"/><text fill="#000000" font-family="sans-serif" font-size="14" lengthAdjust="spacing" textLength="177" x="362" y="507.4795">delivery_date : datetime</text><text fill="#000000" font-family="sans-serif" font-size="14" lengthAdjust="spacing" textLength="167" x="362" y="523.7764">discount_rate : number</text></g><!--class ReceiptDetail--><g id="elem_ReceiptDetail"><rect codeLine="60" fill="#F1F1F1" height="113.1875" id="ReceiptDetail" rx="2.5" ry="2.5" style="stroke:#181818;stroke-width:0.5;" width="311" x="339" y="591"/><ellipse cx="441.75" cy="607" fill="#ADD1B2" rx="11" ry="11" style="stroke:#181818;stroke-width:1.0;"/><path d="M440.5469,607.875 L442,607.875 L442,607.9844 C442,608.3906 442.0313,608.5469 442.1094,608.7031 C442.2656,608.9531 442.5469,609.1094 442.8438,609.1094 C443.0938,609.1094 443.3594,608.9688 443.5156,608.75 C443.6406,608.5938 443.6719,608.4375 443.6719,607.9844 L443.6719,606.0625 C443.6719,605.9063 443.6719,605.8594 443.6563,605.7031 C443.5938,605.2344 443.2813,604.9219 442.8281,604.9219 C442.5781,604.9219 442.3125,605.0625 442.1406,605.2813 C442.0313,605.4531 442,605.6094 442,606.0625 L442,606.1875 L440.5469,606.1875 L440.5469,603.7813 L444.5313,603.7813 L444.5313,604.6406 C444.5313,605.0469 444.5625,605.2188 444.6406,605.375 C444.8125,605.625 445.0938,605.7813 445.375,605.7813 C445.6406,605.7813 445.9063,605.6406 446.0781,605.4219 C446.1875,605.25 446.2188,605.1094 446.2188,604.6406 L446.2188,602.0938 L438.5938,602.0938 C438.1563,602.0938 438.0313,602.1094 437.875,602.2031 C437.625,602.3594 437.4688,602.6563 437.4688,602.9375 C437.4688,603.2188 437.6094,603.4688 437.8281,603.6406 C437.9844,603.75 438.1719,603.7813 438.5938,603.7813 L438.8438,603.7813 L438.8438,610.2969 L438.5938,610.2969 C438.1875,610.2969 438.0313,610.3125 437.875,610.4219 C437.625,610.5938 437.4688,610.8594 437.4688,611.1563 C437.4688,611.4219 437.6094,611.6719 437.8281,611.8281 C437.9688,611.9531 438.2031,612 438.5938,612 L446.5938,612 L446.5938,609.4219 C446.5938,608.9844 446.5625,608.8438 446.4844,608.6875 C446.3125,608.4375 446.0313,608.2813 445.75,608.2813 C445.4844,608.2813 445.2188,608.3906 445.0469,608.6406 C444.9375,608.7969 444.9063,608.9375 444.9063,609.4219 L444.9063,610.2969 L440.5469,610.2969 L440.5469,607.875 Z " fill="#000000"/><text fill="#000000" font-family="sans-serif" font-size="14" lengthAdjust="spacing" textLength="97" x="462.25" y="611.8467">recept_detail</text><line style="stroke:#181818;stroke-width:0.5;" x1="340" x2="649" y1="623" y2="623"/><ellipse cx="350" cy="636.6484" fill="#000000" rx="3" ry="3" style="stroke:#000000;stroke-width:1.0;"/><text fill="#000000" font-family="sans-serif" font-size="14" lengthAdjust="spacing" textLength="285" x="359" y="639.9951">receipt_detail_id : number &#171;generated&#187;</text><line style="stroke:#181818;stroke-width:1.0;" x1="340" x2="649" y1="647.2969" y2="647.2969"/><ellipse cx="350" cy="660.9453" fill="#000000" rx="3" ry="3" style="stroke:#000000;stroke-width:1.0;"/><text fill="#000000" font-family="sans-serif" font-size="14" lengthAdjust="spacing" textLength="180" x="359" y="664.292">receipt_id : number &#171;FK&#187;</text><ellipse cx="350" cy="677.2422" fill="#000000" rx="3" ry="3" style="stroke:#000000;stroke-width:1.0;"/><text fill="#000000" font-family="sans-serif" font-size="14" lengthAdjust="spacing" textLength="180" x="359" y="680.5889">product_id: number &#171;FK&#187;</text><ellipse cx="350" cy="693.5391" fill="#000000" rx="3" ry="3" style="stroke:#000000;stroke-width:1.0;"/><text fill="#000000" font-family="sans-serif" font-size="14" lengthAdjust="spacing" textLength="129" x="359" y="696.8857">quantity : number</text></g><!--link Department to Employee--><g id="link_Department_Employee"><path codeLine="68" d="M325.5,144.079 C325.5,163.571 325.5,168.816 325.5,187.758 " fill="none" id="Department-Employee" style="stroke:#181818;stroke-width:1.0;stroke-dasharray:7.0,7.0;"/><line style="stroke:#181818;stroke-width:1.0;" x1="321.5" x2="329.5" y1="140.079" y2="140.079"/><line style="stroke:#181818;stroke-width:1.0;" x1="321.5" x2="329.5" y1="143.079" y2="143.079"/><line style="stroke:#181818;stroke-width:1.0;" x1="325.5" x2="325.5" y1="144.079" y2="136.079"/><line style="stroke:#181818;stroke-width:1.0;" x1="325.5" x2="331.5" y1="187.758" y2="195.758"/><line style="stroke:#181818;stroke-width:1.0;" x1="325.5" x2="319.5" y1="187.758" y2="195.758"/><line style="stroke:#181818;stroke-width:1.0;" x1="325.5" x2="325.5" y1="187.758" y2="195.758"/><line style="stroke:#181818;stroke-width:1.0;" x1="329.5" x2="321.5" y1="185.758" y2="185.758"/></g><!--link Department to Order--><g id="link_Department_Order"><path codeLine="69" d="M171.829,72 C126.425,72 96,72 96,72 C96,72 96,279.96 96,385.41 " fill="none" id="Department-Order" style="stroke:#181818;stroke-width:1.0;stroke-dasharray:7.0,7.0;"/><line style="stroke:#181818;stroke-width:1.0;" x1="175.829" x2="175.829" y1="68" y2="76"/><line style="stroke:#181818;stroke-width:1.0;" x1="172.829" x2="172.829" y1="68" y2="76"/><line style="stroke:#181818;stroke-width:1.0;" x1="171.829" x2="179.829" y1="72" y2="72"/><line style="stroke:#181818;stroke-width:1.0;" x1="96" x2="102" y1="385.41" y2="393.41"/><line style="stroke:#181818;stroke-width:1.0;" x1="96" x2="90" y1="385.41" y2="393.41"/><line style="stroke:#181818;stroke-width:1.0;" x1="96" x2="96" y1="385.41" y2="393.41"/><line style="stroke:#181818;stroke-width:1.0;" x1="100" x2="92" y1="383.41" y2="383.41"/></g><!--link Department to DeliveryReceipt--><g id="link_Department_DeliveryReceipt"><path codeLine="70" d="M479.056,72 C526.398,72 559,72 559,72 C559,72 559,249.841 559,360.91 " fill="none" id="Department-DeliveryReceipt" style="stroke:#181818;stroke-width:1.0;stroke-dasharray:7.0,7.0;"/><line style="stroke:#181818;stroke-width:1.0;" x1="475.056" x2="475.056" y1="76" y2="68"/><line style="stroke:#181818;stroke-width:1.0;" x1="478.056" x2="478.056" y1="76" y2="68"/><line style="stroke:#181818;stroke-width:1.0;" x1="479.056" x2="471.056" y1="72" y2="72"/><line style="stroke:#181818;stroke-width:1.0;" x1="559" x2="565" y1="360.91" y2="368.91"/><line style="stroke:#181818;stroke-width:1.0;" x1="559" x2="553" y1="360.91" y2="368.91"/><line style="stroke:#181818;stroke-width:1.0;" x1="559" x2="559" y1="360.91" y2="368.91"/><line style="stroke:#181818;stroke-width:1.0;" x1="563" x2="555" y1="358.91" y2="358.91"/></g><!--link Employee to Order--><g id="link_Employee_Order"><path codeLine="71" d="M241.75,317.096 C241.75,343.54 241.75,358.95 241.75,385.396 " fill="none" id="Employee-Order" style="stroke:#181818;stroke-width:1.0;stroke-dasharray:7.0,7.0;"/><line style="stroke:#181818;stroke-width:1.0;" x1="237.75" x2="245.75" y1="313.096" y2="313.096"/><line style="stroke:#181818;stroke-width:1.0;" x1="237.75" x2="245.75" y1="316.096" y2="316.096"/><line style="stroke:#181818;stroke-width:1.0;" x1="241.75" x2="241.75" y1="317.096" y2="309.096"/><line style="stroke:#181818;stroke-width:1.0;" x1="241.75" x2="247.75" y1="385.396" y2="393.396"/><line style="stroke:#181818;stroke-width:1.0;" x1="241.75" x2="235.75" y1="385.396" y2="393.396"/><line style="stroke:#181818;stroke-width:1.0;" x1="241.75" x2="241.75" y1="385.396" y2="393.396"/><line style="stroke:#181818;stroke-width:1.0;" x1="245.75" x2="237.75" y1="383.396" y2="383.396"/></g><!--link Employee to DeliveryReceipt--><g id="link_Employee_DeliveryReceipt"><path codeLine="72" d="M404.25,317.096 C404.25,335.675 404.25,340.706 404.25,360.744 " fill="none" id="Employee-DeliveryReceipt" style="stroke:#181818;stroke-width:1.0;stroke-dasharray:7.0,7.0;"/><line style="stroke:#181818;stroke-width:1.0;" x1="400.25" x2="408.25" y1="313.096" y2="313.096"/><line style="stroke:#181818;stroke-width:1.0;" x1="400.25" x2="408.25" y1="316.096" y2="316.096"/><line style="stroke:#181818;stroke-width:1.0;" x1="404.25" x2="404.25" y1="317.096" y2="309.096"/><line style="stroke:#181818;stroke-width:1.0;" x1="404.25" x2="410.25" y1="360.744" y2="368.744"/><line style="stroke:#181818;stroke-width:1.0;" x1="404.25" x2="398.25" y1="360.744" y2="368.744"/><line style="stroke:#181818;stroke-width:1.0;" x1="404.25" x2="404.25" y1="360.744" y2="368.744"/><line style="stroke:#181818;stroke-width:1.0;" x1="408.25" x2="400.25" y1="358.744" y2="358.744"/></g><!--link Order to OrderDetail--><g id="link_Order_OrderDetail"><path codeLine="73" d="M155.5,514.596 C155.5,541.04 155.5,556.45 155.5,582.896 " fill="none" id="Order-OrderDetail" style="stroke:#181818;stroke-width:1.0;stroke-dasharray:7.0,7.0;"/><line style="stroke:#181818;stroke-width:1.0;" x1="151.5" x2="159.5" y1="510.596" y2="510.596"/><line style="stroke:#181818;stroke-width:1.0;" x1="151.5" x2="159.5" y1="513.596" y2="513.596"/><line style="stroke:#181818;stroke-width:1.0;" x1="155.5" x2="155.5" y1="514.596" y2="506.596"/><line style="stroke:#181818;stroke-width:1.0;" x1="155.5" x2="161.5" y1="582.896" y2="590.896"/><line style="stroke:#181818;stroke-width:1.0;" x1="155.5" x2="149.5" y1="582.896" y2="590.896"/><line style="stroke:#181818;stroke-width:1.0;" x1="155.5" x2="155.5" y1="582.896" y2="590.896"/><line style="stroke:#181818;stroke-width:1.0;" x1="159.5" x2="151.5" y1="580.896" y2="580.896"/></g><!--link OrderDetail to Product--><g id="link_OrderDetail_Product"><path codeLine="74" d="M247.5,712.273 C247.5,731.142 247.5,736.293 247.5,755.72 " fill="none" id="OrderDetail-Product" style="stroke:#181818;stroke-width:1.0;stroke-dasharray:7.0,7.0;"/><line style="stroke:#181818;stroke-width:1.0;" x1="243.5" x2="251.5" y1="708.273" y2="708.273"/><line style="stroke:#181818;stroke-width:1.0;" x1="243.5" x2="251.5" y1="711.273" y2="711.273"/><line style="stroke:#181818;stroke-width:1.0;" x1="247.5" x2="247.5" y1="712.273" y2="704.273"/><line style="stroke:#181818;stroke-width:1.0;" x1="251.5" x2="243.5" y1="759.72" y2="759.72"/><line style="stroke:#181818;stroke-width:1.0;" x1="251.5" x2="243.5" y1="756.72" y2="756.72"/><line style="stroke:#181818;stroke-width:1.0;" x1="247.5" x2="247.5" y1="755.72" y2="763.72"/></g><!--link DeliveryReceipt to ReceiptDetail--><g id="link_DeliveryReceipt_ReceiptDetail"><path codeLine="75" d="M494.5,539.186 C494.5,559.188 494.5,564.183 494.5,582.745 " fill="none" id="DeliveryReceipt-ReceiptDetail" style="stroke:#181818;stroke-width:1.0;stroke-dasharray:7.0,7.0;"/><line style="stroke:#181818;stroke-width:1.0;" x1="490.5" x2="498.5" y1="535.186" y2="535.186"/><line style="stroke:#181818;stroke-width:1.0;" x1="490.5" x2="498.5" y1="538.186" y2="538.186"/><line style="stroke:#181818;stroke-width:1.0;" x1="494.5" x2="494.5" y1="539.186" y2="531.186"/><line style="stroke:#181818;stroke-width:1.0;" x1="494.5" x2="500.5" y1="582.745" y2="590.745"/><line style="stroke:#181818;stroke-width:1.0;" x1="494.5" x2="488.5" y1="582.745" y2="590.745"/><line style="stroke:#181818;stroke-width:1.0;" x1="494.5" x2="494.5" y1="582.745" y2="590.745"/><line style="stroke:#181818;stroke-width:1.0;" x1="498.5" x2="490.5" y1="580.745" y2="580.745"/></g><!--link ReceiptDetail to Product--><g id="link_ReceiptDetail_Product"><path codeLine="76" d="M398.5,712.273 C398.5,731.142 398.5,736.293 398.5,755.72 " fill="none" id="ReceiptDetail-Product" style="stroke:#181818;stroke-width:1.0;stroke-dasharray:7.0,7.0;"/><line style="stroke:#181818;stroke-width:1.0;" x1="394.5" x2="402.5" y1="708.273" y2="708.273"/><line style="stroke:#181818;stroke-width:1.0;" x1="394.5" x2="402.5" y1="711.273" y2="711.273"/><line style="stroke:#181818;stroke-width:1.0;" x1="398.5" x2="398.5" y1="712.273" y2="704.273"/><line style="stroke:#181818;stroke-width:1.0;" x1="402.5" x2="394.5" y1="759.72" y2="759.72"/><line style="stroke:#181818;stroke-width:1.0;" x1="402.5" x2="394.5" y1="756.72" y2="756.72"/><line style="stroke:#181818;stroke-width:1.0;" x1="398.5" x2="398.5" y1="755.72" y2="763.72"/></g><!--SRC=[dPJ1RjGm48RlVefHBuLAhG3H2wfwAbmuW7Y1o6iFZKLYXx6pPTNbtHdRITP9Kst4APcPV-nF_zY-XDfeX50Z-Cu5SPbZPKWrA3YKUsSqTEHs3ROUdaoeGTh71ZKeSayUVY86uNyPsqcIBJJ6OZXq28v2xOH06qmum8L6heUMmmkG7Xwc49u5m5Kgnx3YtJw1xTiT4jpTFQ95aW7r_JtBhgydRUgjh6oHvNj9gfRqvkFjMnP8hGczvtp0Fo5sTBMpKPT4xzz5qPNnbSR6x94ENDavrw2quk-96DkkSGV4nFjv23BjMDe0EqaZwe9-tltbQsfxmLeWyHXqhxA3t_D_1XeA6tX6vSAvssIAHg_8TC4uMxZNMnEgEDEJ_4Fsi2EZSDgn97MaaHBdj_YNALDo0sFMdJDgaBqoYxb8ymvSZPzWU0vBKjuiIDESW1zIN69dnMRwTPhJd5QAltkPcTOC7SzgHQYGHpJSefpyaNCPTn1i84tAFPvtUXIUyNfYFBlWfDoyucA0V5QDLwxd7IYNNbeMgTc7OhI3J-LmHxSsZtVTtlyVSF4I7eytDyVdwQrPAQMpkP9V70GnBZ5hMoINFVcYbXtP9r5UY5G-Ze-FM1x0eNlcivYxFb_X7m00]--></g></svg>